<svg width="50" height="99" viewBox="0 0 50 99" fill="none" xmlns="http://www.w3.org/2000/svg">
<path d="M26.5087 94.5713H6.4C5.07452 94.5713 4 93.4968 4 92.1713V75.2271C4 74.5543 4.28235 73.9125 4.77826 73.4579L16.47 62.7405C17.5077 61.7893 17.5077 60.1533 16.47 59.2021L4.77826 48.4847C4.28235 48.0301 4 47.3883 4 46.7155V19.1724C4 18.3067 4.46624 17.5081 5.22011 17.0825L26.832 4.88135C27.1921 4.67809 27.5985 4.57129 28.0119 4.57129H42.4C43.7255 4.57129 44.8 5.64581 44.8 6.97129V24.9713C44.8 25.7267 44.4443 26.438 43.84 26.8913L32.9277 35.0755C31.6575 36.0282 31.6459 37.9297 32.9044 38.8978L45.0633 48.2508C45.6539 48.7051 46 49.4079 46 50.1531V77.8511C46 78.5611 45.6856 79.2347 45.1414 79.6907L28.0501 94.0109C27.618 94.3729 27.0724 94.5713 26.5087 94.5713Z" stroke="black" stroke-width="7.2"/>
</svg>
